# xmcd CD database file
#
# Track frame offsets:
#	150
#	9407
#	38440
#	53755
#	75352
#	94850
#	121012
#	139702
#	161207
#	174962
#
# Disc length: 2561 seconds
#
# Revision: 0
# Processed by: cddbd v1.5.1PL0 Copyright (c) Steve Scherf et al.
# Submitted via: CDex 1.51
#
DISCID=6809ff0a
DTITLE=Carmen McRae - At The Great American Music Hall
DYEAR=1976
DGENRE=Jazz
TTITLE0=Them There Eyes
TTITLE1=Paint Your Pretty Picture
TTITLE2=On Green Dolphin Street
TTITLE3=A Song For You
TTITLE4=On A Clear Day
TTITLE5=Miss Otis Regrets
TTITLE6=Too Close For Comfort
TTITLE7=Old Folks
TTITLE8=Time After Time
TTITLE9=I´m Always Drunk In San Franzisco
EXTD=YEAR: 1976
EXTT0=
EXTT1=
EXTT2=
EXTT3=
EXTT4=
EXTT5=
EXTT6=
EXTT7=
EXTT8=
EXTT9=
PLAYORDER=
